# xmcd CD database file
#
# Track frame offsets:
#	150
#	22953
#	44745
#	64081
#
# Disc length: 1048 seconds
#
# Revision: 1
# Processed by: cddbd v1.5.2PL0 Copyright (c) Steve Scherf et al.
# Submitted via: CDex 1.51
#
DISCID=30041604
DTITLE=Soutien Gorge - Persze (Remixes) EP
DYEAR=2005
DGENRE=New Age
TTITLE0=Persze
TTITLE1=Persze [Cooler's Rework]
TTITLE2=Persze [ISAN Sun-Snow-Sun Mix]
TTITLE3=Persze [Hdjtom's Version]
EXTD=YEAR: 2005
EXTT0=
EXTT1=
EXTT2=
EXTT3=
PLAYORDER=
